<?xml version="1.0" encoding="UTF-8"?>
<svg xmlns="http://www.w3.org/2000/svg" xmlns:xlink="http://www.w3.org/1999/xlink" width="144px" height="105px" viewBox="0 0 144 105" version="1.1">
<g id="surface1">
<path style=" stroke:none;fill-rule:nonzero;fill:rgb(43.529412%,80.392158%,90.980393%);fill-opacity:1;" d="M 122.875 46.121094 C 122.875 20.667969 102.269531 0.0351562 76.847656 0.0351562 C 51.429688 0.0351562 30.824219 20.667969 30.824219 46.121094 C 30.824219 71.574219 51.429688 92.207031 76.847656 92.207031 C 102.269531 92.207031 122.875 71.574219 122.875 46.121094 Z M 122.875 46.121094 "/>
<path style=" stroke:none;fill-rule:nonzero;fill:rgb(89.803922%,83.92157%,91.37255%);fill-opacity:1;" d="M 144 64.945312 C 144 79 133.253906 89.789062 132.71875 90.28125 C 128.5 94.144531 123.035156 97.105469 109.253906 99.734375 C 86.363281 104.105469 67.867188 101.980469 62.890625 101.839844 C 33.8125 101 15.753906 97.957031 10.886719 88.441406 C -1.738281 63.742188 90.066406 30.152344 109.253906 30.152344 C 128.445312 30.152344 144 45.730469 144 64.945312 Z M 144 64.945312 "/>
<path style=" stroke:none;fill-rule:nonzero;fill:rgb(42.745098%,67.843139%,76.47059%);fill-opacity:1;" d="M 131.363281 90.851562 C 125.441406 109.183594 65.019531 105.425781 35.25 102.597656 C 33.085938 102.414062 13.292969 100.410156 4.136719 83.863281 C 2.960938 81.734375 -0.496094 75.3125 0.0546875 67.355469 C 1.308594 49.257812 10.074219 33.261719 28.933594 35.277344 C 65.960938 39.238281 137.960938 70.421875 131.363281 90.851562 Z M 131.363281 90.851562 "/>
</g>
</svg>
