<?xml version="1.0" encoding="UTF-8"?>
<svg id="Layer_2" data-name="Layer 2" xmlns="http://www.w3.org/2000/svg" viewBox="0 0 389.62 283.53">
  <defs>
    <style>
      .cls-1 {
        fill: #e5d6e9;
        opacity: 1;
      }

      .cls-2 {
        fill: #6dadc3;
        opacity: 1;
      }

      .cls-3 {
        fill: #6fcde8;
      }
    </style>
  </defs>
  <g id="Layer_1-2">
    <g>
      <circle class="cls-3" cx="207.93" cy="124.53" r="124.53"/>
      <path class="cls-1" d="M389.62,175.39c0,37.98-29.08,67.14-30.52,68.46-11.42,10.44-26.2,18.44-63.49,25.55-61.94,11.81-111.98,6.07-125.45,5.69-78.67-2.27-127.53-10.49-140.7-36.21C-4.7,172.14,243.69,81.38,295.61,81.38s94.01,42.09,94.01,94.01Z"/>
      <path class="cls-2" d="M355.43,245.4c-16.02,49.53-179.51,39.38-260.05,31.74-5.86-.5-59.41-5.92-84.19-50.63-3.18-5.75-12.53-23.1-11.04-44.6,3.39-48.91,27.11-92.13,78.14-86.68,100.18,10.7,294.99,94.96,277.14,150.17Z"/>
    </g>
  </g>
</svg>
